<?xml version="1.0" standalone="no"?>
<!DOCTYPE svg PUBLIC "-//W3C//DTD SVG 20010904//EN"
 "http://www.w3.org/TR/2001/REC-SVG-20010904/DTD/svg10.dtd">
<svg version="1.0" xmlns="http://www.w3.org/2000/svg"
 width="1170.000000pt" height="1163.000000pt" viewBox="0 0 1170.000000 1163.000000"
 preserveAspectRatio="xMidYMid meet">

<g transform="translate(0.000000,1163.000000) scale(0.100000,-0.100000)"
fill="#000000" stroke="none">
<path d="M5065 9405 c-161 -30 -392 -124 -525 -215 -67 -46 -128 -105 -188
-185 -25 -33 -49 -64 -53 -69 -4 -4 -37 -14 -73 -22 -222 -46 -512 -293 -612
-521 -14 -32 -39 -85 -55 -118 -16 -33 -29 -70 -29 -82 0 -15 -18 -36 -57 -66
-265 -205 -400 -536 -352 -862 l11 -75 -54 -83 c-84 -126 -94 -145 -132 -254
-39 -114 -61 -218 -71 -338 -11 -131 33 -369 88 -480 28 -56 109 -156 147
-180 26 -17 30 -25 26 -50 -30 -174 -30 -255 -4 -380 30 -144 135 -323 251
-430 55 -51 99 -80 187 -122 168 -82 183 -92 197 -144 30 -114 190 -297 353
-405 125 -82 209 -123 355 -172 227 -77 432 -95 700 -62 194 24 284 48 398
107 77 39 107 63 182 141 l91 93 24 -27 c66 -71 240 -209 295 -234 69 -31 263
-73 415 -91 97 -11 117 -10 240 10 186 31 248 46 375 90 322 114 458 197 582
355 63 81 95 139 117 217 l16 55 83 19 c186 42 350 163 450 331 91 153 117
264 117 497 l0 149 54 59 c101 112 165 284 187 505 29 282 -76 618 -253 810
l-38 41 11 59 c17 88 6 292 -20 393 -48 183 -156 340 -311 452 -23 16 -42 35
-44 42 -2 7 -15 53 -31 102 -88 292 -340 547 -630 637 -106 33 -127 49 -220
166 -92 116 -260 216 -495 295 -126 43 -222 57 -378 57 -195 0 -370 -50 -497
-141 l-45 -32 -57 35 c-103 63 -184 99 -257 114 -107 22 -373 27 -471 9z m376
-259 c88 -19 177 -65 222 -115 36 -40 37 -43 37 -119 0 -42 5 -142 11 -222 10
-137 -2 -667 -17 -758 -4 -28 0 -38 29 -67 30 -30 42 -35 81 -35 54 0 103 18
129 48 22 24 28 166 31 692 1 365 2 368 61 438 81 96 278 160 462 150 111 -6
176 -28 372 -125 113 -56 169 -90 210 -129 l56 -52 -30 -23 c-84 -66 -172
-148 -184 -173 -20 -42 -1 -96 51 -140 61 -53 84 -49 167 27 72 67 107 82 215
98 137 19 287 -54 360 -175 12 -19 43 -67 70 -107 26 -39 54 -87 62 -105 8
-19 19 -34 25 -34 5 0 8 -4 5 -9 -3 -4 -32 -11 -65 -14 -115 -12 -208 -66
-242 -141 -27 -59 -24 -97 9 -128 45 -44 78 -52 126 -30 114 53 197 54 308 4
166 -76 264 -247 256 -447 l-3 -74 -60 37 c-103 63 -377 162 -449 162 -69 0
-126 -59 -126 -130 0 -32 30 -70 56 -70 30 0 390 -152 457 -193 163 -100 186
-118 232 -182 45 -64 129 -225 120 -233 -8 -8 -679 -23 -735 -17 -49 6 -60 12
-101 55 -25 27 -55 68 -66 92 -147 306 -166 334 -252 378 -56 28 -91 25 -147
-12 -115 -78 -170 -213 -289 -715 -32 -132 -62 -214 -84 -228 -14 -8 -46 58
-60 125 -7 30 -33 141 -57 245 -94 397 -114 483 -133 575 -51 240 -78 326
-122 381 -35 44 -57 58 -109 70 -82 19 -159 -30 -203 -130 -33 -72 -79 -296
-122 -586 -45 -302 -100 -644 -118 -725 -8 -36 -23 -118 -32 -182 -9 -65 -21
-118 -25 -118 -13 0 -40 132 -65 327 -13 100 -28 199 -34 220 -6 21 -20 117
-31 213 -48 402 -103 750 -129 826 -42 118 -100 174 -179 174 -107 0 -152 -49
-210 -230 -41 -128 -61 -214 -142 -605 -52 -254 -96 -438 -114 -478 -8 -17
-20 -51 -26 -74 -6 -24 -12 -43 -15 -43 -18 0 -54 102 -100 286 -64 252 -122
430 -172 526 -40 77 -102 152 -144 173 -42 22 -125 19 -165 -6 -45 -27 -111
-137 -175 -288 -64 -153 -98 -200 -163 -223 -43 -17 -83 -18 -417 -16 l-369 3
29 62 c42 88 123 204 188 269 44 44 82 69 187 119 196 94 259 163 203 219 -31
31 -99 50 -152 43 -22 -3 -83 -26 -136 -51 -53 -26 -102 -46 -109 -46 -23 0
-6 136 29 227 40 102 76 152 150 207 126 92 246 136 374 136 80 0 100 -4 144
-25 28 -14 54 -33 57 -41 15 -38 132 -58 173 -29 54 38 49 151 -10 214 -18 19
-73 53 -126 77 -106 50 -198 68 -298 58 l-64 -7 21 54 c27 68 76 140 166 244
60 68 84 88 149 120 62 31 92 39 150 43 97 6 130 -7 225 -89 71 -61 85 -69
121 -69 79 0 129 49 129 128 0 58 -43 110 -139 168 -44 27 -81 52 -81 56 0 15
149 143 210 179 77 46 208 95 300 114 88 18 289 18 371 1z m897 -1889 c207
-945 228 -1020 319 -1128 56 -66 151 -86 229 -48 109 52 167 176 258 549 47
193 92 333 115 361 l19 24 42 -90 c23 -49 55 -117 71 -150 91 -193 261 -274
549 -261 69 3 235 7 370 8 l245 1 -3 -64 c-4 -85 -48 -281 -76 -344 -26 -56
-94 -131 -132 -145 -47 -18 -99 -12 -128 15 -30 27 -66 104 -66 139 0 13 -8
34 -19 47 -10 13 -27 45 -38 70 -42 94 -109 110 -183 43 -56 -51 -57 -71 -11
-172 21 -48 45 -113 52 -145 26 -122 121 -211 261 -245 68 -17 74 -21 85 -53
7 -19 12 -56 12 -83 1 -50 -38 -195 -70 -257 -53 -106 -174 -208 -297 -250
-78 -27 -94 -23 -97 23 -1 21 -15 56 -33 84 -18 26 -32 60 -32 76 0 64 -67
138 -124 138 -40 0 -93 -34 -123 -79 -27 -39 -29 -61 -8 -61 9 0 15 -9 15 -25
0 -14 4 -25 10 -25 24 0 71 -129 94 -260 8 -50 -8 -139 -39 -203 -45 -96 -115
-157 -256 -226 -272 -131 -410 -169 -656 -178 -244 -10 -395 33 -539 151 -98
81 -145 145 -187 255 -20 51 -22 76 -22 294 0 238 0 239 -23 258 -13 10 -41
23 -63 29 -58 16 -100 -5 -130 -66 -22 -46 -23 -61 -26 -271 -2 -165 -7 -239
-18 -285 -47 -182 -219 -315 -467 -361 -304 -56 -629 -1 -916 155 -126 68
-312 270 -312 339 0 18 114 136 194 202 53 44 62 68 47 125 -34 123 -173 121
-272 -4 -51 -64 -77 -80 -146 -90 -44 -5 -59 -2 -114 25 -35 17 -100 61 -143
98 -100 85 -150 172 -172 293 -16 96 -16 214 2 238 10 14 29 17 111 17 87 0
107 4 178 33 44 18 96 46 115 63 19 17 61 50 94 75 56 42 61 44 128 44 70 0
71 0 113 -44 28 -28 48 -59 55 -87 7 -24 23 -66 37 -93 14 -28 27 -70 28 -95
3 -47 23 -71 56 -71 10 0 47 -20 82 -44 36 -24 78 -51 95 -60 29 -15 31 -19
35 -88 7 -106 34 -279 53 -334 34 -100 117 -182 224 -219 163 -58 372 -3 513
135 66 65 67 67 67 119 0 65 -11 86 -51 100 -69 24 -102 15 -168 -44 -89 -80
-145 -105 -229 -105 -64 0 -70 2 -100 33 -17 17 -38 49 -47 70 -14 35 -39 266
-29 276 2 3 37 5 77 6 90 2 220 41 308 93 52 32 69 48 92 92 40 80 36 130 -14
155 -48 25 -84 18 -199 -42 -106 -55 -112 -57 -203 -61 -100 -5 -175 9 -269
50 -64 27 -98 74 -134 180 -50 152 -181 275 -333 314 -119 30 -250 -6 -347
-97 -68 -63 -96 -80 -166 -99 -64 -17 -130 -9 -204 24 -77 35 -113 72 -158
163 -39 79 -59 176 -54 269 l3 59 405 5 c435 6 421 5 536 63 55 28 124 96 175
172 34 50 119 237 119 261 0 36 23 17 54 -45 39 -77 94 -253 126 -406 25 -113
83 -301 111 -356 33 -67 160 -159 217 -159 63 0 146 64 190 148 55 102 127
378 207 792 41 210 83 392 94 403 10 10 35 -138 62 -363 11 -96 27 -227 35
-290 7 -63 25 -189 39 -280 14 -91 37 -237 51 -325 41 -267 70 -363 132 -437
49 -58 147 -76 208 -39 120 73 179 286 269 961 14 107 37 272 50 365 13 94 29
204 34 245 13 98 31 180 39 180 4 0 22 -69 40 -153z"/>
<path d="M6404 8838 c-42 -11 -84 -72 -84 -122 0 -21 13 -66 29 -101 16 -34
37 -87 47 -118 l17 -55 -42 -50 c-62 -74 -111 -161 -111 -197 0 -57 66 -115
133 -115 33 0 41 7 90 68 30 37 71 83 92 101 37 32 41 33 109 29 80 -4 139
-28 203 -83 60 -51 83 -106 83 -194 0 -81 -7 -98 -61 -157 -75 -83 -83 -124
-33 -183 53 -63 137 -44 219 51 80 92 120 217 113 353 -4 86 -26 138 -105 246
-59 82 -199 160 -363 200 -89 22 -97 30 -172 174 -79 150 -101 170 -164 153z"/>
<path d="M5175 8798 c-47 -27 -54 -68 -35 -198 6 -41 6 -80 -1 -108 -13 -59
-82 -146 -214 -271 -131 -124 -198 -200 -226 -259 -19 -39 -65 -213 -76 -289
-15 -102 51 -146 169 -113 33 9 39 16 48 53 38 144 73 238 104 278 18 25 81
84 139 132 232 192 307 315 307 498 0 74 -30 187 -63 233 -34 48 -108 69 -152
44z"/>
<path d="M7387 6013 c-15 -2 -55 -23 -90 -46 -67 -46 -119 -111 -202 -252 -81
-139 -67 -134 -195 -70 -86 43 -135 60 -227 80 -187 40 -267 29 -299 -39 -15
-31 -15 -36 4 -80 26 -59 76 -83 195 -96 203 -23 263 -60 340 -209 49 -96 50
-149 5 -233 -60 -113 -169 -168 -313 -159 -11 0 -44 19 -74 41 -81 61 -139 52
-165 -25 -9 -25 -10 -51 -5 -82 21 -112 86 -155 239 -161 120 -5 177 7 287 59
116 55 210 148 260 257 46 98 53 176 25 281 l-19 74 37 73 c21 40 49 87 62
106 14 18 40 61 58 95 43 82 91 137 148 170 62 35 82 60 82 106 0 52 -23 93
-61 106 -32 11 -41 11 -92 4z"/>
<path d="M1442 3418 c-9 -9 -12 -146 -12 -555 l0 -543 267 0 c325 0 356 6 442
86 77 71 95 121 89 252 -3 80 -8 104 -27 135 -20 33 -72 79 -127 114 -18 10
-15 15 28 60 57 59 78 105 78 176 0 81 -25 140 -76 186 -94 83 -174 101 -449
101 -143 0 -204 -3 -213 -12z m469 -215 c32 -31 37 -108 10 -151 -28 -43 -55
-52 -162 -52 l-89 0 0 116 0 116 110 -4 c96 -3 112 -6 131 -25z m15 -431 c96
-49 98 -197 4 -244 -36 -19 -163 -25 -229 -12 l-31 7 0 140 0 140 108 -5 c83
-4 116 -9 148 -26z"/>
<path d="M2423 3419 c-10 -10 -13 -135 -13 -556 l0 -543 115 0 115 0 1 38 c1
20 4 100 8 177 l6 140 73 0 74 0 78 -145 c43 -80 87 -158 97 -175 l18 -30 119
-3 119 -3 -6 40 c-3 25 -39 96 -101 200 -53 89 -96 163 -96 165 0 1 19 22 43
47 114 120 157 308 98 429 -58 119 -101 160 -216 202 -54 20 -83 22 -290 26
-177 3 -233 1 -242 -9z m464 -238 c54 -31 77 -77 71 -143 -6 -54 -31 -96 -70
-116 -25 -12 -222 -22 -231 -12 -2 3 -7 72 -9 154 l-5 148 101 -4 c83 -3 108
-8 143 -27z"/>
<path d="M3750 3415 c0 -9 -12 -44 -26 -78 -15 -34 -92 -246 -171 -472 -80
-225 -154 -434 -164 -464 -11 -29 -18 -60 -15 -67 7 -19 225 -20 248 -1 9 6
28 51 43 100 l26 87 190 0 189 0 11 -27 c6 -16 16 -53 23 -84 18 -88 19 -89
162 -89 140 0 138 -2 104 78 -26 63 -73 193 -116 322 -20 58 -56 159 -81 225
-60 156 -130 347 -149 410 -9 28 -21 56 -26 63 -7 8 -46 12 -129 12 -100 0
-119 -2 -119 -15z m149 -327 c5 -13 30 -95 56 -182 37 -127 44 -161 33 -167
-19 -12 -216 -11 -223 1 -4 6 -2 25 4 43 5 17 31 98 56 180 25 81 50 147 56
147 5 0 13 -10 18 -22z"/>
<path d="M4542 3418 c-9 -9 -12 -146 -12 -555 l0 -543 114 0 c95 0 115 3 120
16 3 9 6 253 6 543 0 397 -3 530 -12 539 -16 16 -200 16 -216 0z"/>
<path d="M5021 3416 c-8 -10 -11 -164 -11 -555 l1 -541 97 0 c123 0 149 11
157 65 3 22 5 156 3 298 -2 141 0 257 3 257 4 0 26 -30 50 -67 24 -38 73 -108
110 -158 36 -49 94 -135 129 -190 35 -55 81 -124 102 -152 l39 -53 109 0 108
0 6 28 c10 48 4 1056 -7 1070 -14 18 -211 17 -226 -1 -7 -9 -12 -116 -13 -328
l-3 -314 -56 75 c-59 79 -309 446 -346 508 -39 64 -55 72 -153 72 -62 0 -91
-4 -99 -14z"/>
<path d="M6101 3416 c-9 -11 -4 -38 23 -122 18 -60 52 -174 74 -254 63 -226
162 -578 183 -652 l20 -68 113 0 c88 0 116 3 126 15 13 15 43 127 85 310 14
61 36 148 50 195 13 47 29 104 35 128 6 23 14 42 18 42 5 0 23 -66 41 -147 18
-82 56 -237 84 -345 l50 -198 117 0 c91 0 120 3 130 15 12 15 65 187 125 405
19 69 53 188 75 265 92 308 119 408 114 417 -3 4 -54 8 -114 8 -94 0 -111 -2
-119 -17 -5 -10 -26 -81 -46 -158 -20 -77 -46 -174 -57 -215 -10 -41 -37 -131
-59 -199 -21 -68 -39 -132 -39 -142 0 -36 -16 -19 -33 34 -17 55 -63 245 -123
512 -20 88 -38 166 -40 173 -3 9 -29 12 -105 10 -115 -3 -110 0 -132 -93 -8
-33 -31 -123 -52 -200 -20 -77 -52 -207 -71 -289 -18 -82 -36 -152 -41 -157
-5 -5 -25 53 -45 129 -20 75 -55 207 -78 292 -23 85 -50 187 -59 225 -9 39
-20 76 -24 83 -12 18 -211 17 -226 -2z"/>
<path d="M7883 3418 c-6 -7 -22 -49 -36 -93 -13 -44 -48 -143 -76 -220 -83
-224 -261 -747 -261 -767 0 -16 11 -18 115 -18 133 0 122 -8 163 115 l28 80
185 3 186 2 21 -57 c12 -32 24 -71 28 -88 12 -53 18 -55 141 -55 134 0 135 1
105 92 -39 118 -174 504 -231 658 -23 63 -53 144 -66 180 -13 36 -36 90 -52
120 l-30 55 -105 3 c-76 2 -108 -1 -115 -10z m141 -363 c4 -22 25 -95 47 -162
21 -67 39 -129 39 -136 0 -8 -14 -17 -31 -21 -39 -7 -194 -8 -201 -1 -3 3 21
86 53 183 76 229 69 210 78 192 5 -8 12 -33 15 -55z"/>
<path d="M8443 3419 c-9 -9 -9 -19 2 -39 7 -14 23 -64 35 -110 12 -46 52 -176
90 -289 37 -113 96 -294 130 -401 33 -107 68 -210 77 -227 l16 -33 142 0 c102
0 145 4 153 13 5 6 26 64 45 127 19 63 92 291 162 505 69 215 130 401 134 415
15 47 7 50 -113 50 -75 0 -118 -4 -130 -13 -10 -7 -29 -55 -45 -117 -37 -135
-70 -246 -133 -445 -64 -201 -69 -215 -79 -215 -8 0 -29 63 -29 87 0 7 -20 72
-44 145 -24 73 -63 196 -86 273 -53 179 -79 253 -97 271 -18 18 -213 20 -230
3z"/>
<path d="M9567 3423 c-4 -3 -7 -253 -7 -555 l0 -548 334 0 c184 0 341 3 350 6
13 5 16 24 16 99 0 64 -4 96 -12 101 -7 5 -113 8 -236 8 l-223 0 2 113 c1 102
3 113 21 119 11 3 94 4 186 3 l167 -3 7 39 c12 68 9 150 -6 171 -13 17 -28 19
-143 20 -70 1 -152 2 -181 3 l-53 1 3 103 3 102 225 5 225 5 3 108 3 107 -339
0 c-186 0 -342 -3 -345 -7z"/>
</g>
</svg>
